<svg xmlns="http://www.w3.org/2000/svg" xmlns:xlink="http://www.w3.org/1999/xlink" version="1.1" x="0px" y="0px" viewBox="0 0 1024 1280" style="enable-background:new 0 0 1024 1024;" xml:space="preserve"><g><g><g><path d="M835.1,245.5c3.8,3.8,7.4,7.7,10.9,11.8c1.9,2.2,3.7,4.4,5.5,6.7c-1.4-1.9,0,0.1,0.3,0.4     c1.1,1.5,2.3,3.1,3.3,4.6c6.2,8.9,11.7,18.2,16.4,28c1,2.1,2,4.2,2.9,6.3c1.9,4.2-1-2.7,0.6,1.6c0.3,0.9,0.7,1.7,1,2.6     c2,5.2,3.8,10.4,5.4,15.7c1.4,4.9,2.7,9.8,3.7,14.7c0.5,2.2,0.9,4.5,1.3,6.8c0.2,1.4,0.5,2.7,0.7,4.1c0.1,0.9,0.3,1.8,0.4,2.7     c-0.2-1.7-0.2-1.7,0,0.1c1.1,10,1.7,20.1,1.4,30.2c-0.1,5-0.5,10.1-1,15.1c-0.1,1.4-0.3,2.7-0.5,4.1c-0.5,4.5,0.5-3-0.2,1.5     c-0.4,2.7-0.9,5.4-1.4,8.1c-2,10.2-4.7,20.2-8.2,30c-0.9,2.4-1.8,4.8-2.7,7.1c-1.7,4.3,1.2-2.6-0.6,1.6c-0.4,0.8-0.8,1.7-1.1,2.5     c-2.3,5.1-4.8,10.1-7.6,15c-2.5,4.5-5.2,9-8.1,13.3c-3.5,5.3-5.9,8.4-8.7,11.9c-4.3,5.3-9,10.4-13.8,15.3     c-1.7,1.7-3.5,3.5-5.2,5.2c-10.2,10.2-20.3,20.3-30.5,30.5c-36.7,36.7-73.5,73.5-110.2,110.2c-40.4,40.4-80.7,80.7-121.1,121.1     c-14.7,14.7-29.3,29.3-44,44c-7.2,7.2-14.7,14.2-21.7,21.7c-0.3,0.3-0.6,0.6-0.9,0.9c7.1,0,14.1,0,21.2,0     c-8.4-8.4-16.9-16.9-25.3-25.3c-20.9-20.9-41.9-41.9-62.8-62.8c-27.2-27.2-54.4-54.4-81.6-81.6c-26.9-26.9-53.8-53.8-80.6-80.6     c-20.4-20.4-40.8-40.8-61.2-61.2c-10.1-10.1-20.7-20-30.3-30.7c-2.2-2.5-4.4-5.1-6.5-7.7c-0.6-0.7-1.2-1.5-1.8-2.3     c0.2,0.2,1.2,1.6,0.2,0.2c-1.1-1.5-2.3-3.1-3.4-4.6c-4.1-5.8-7.9-11.8-11.3-18c-1.7-3.1-3.3-6.2-4.9-9.3     c-0.7-1.5-1.4-2.9-2.1-4.4c-0.3-0.6-0.6-1.3-0.9-1.9c0,0.1-1.6-3.6-0.9-2c0.6,1.5-0.3-0.7-0.3-0.8c-0.3-0.9-0.7-1.7-1-2.6     c-0.6-1.5-1.2-3-1.7-4.6c-1.3-3.5-2.4-7-3.5-10.5c-2-6.6-3.6-13.3-4.9-20.1c-0.3-1.6-0.6-3.2-0.8-4.7c-0.1-0.7-0.7-4.9-0.5-3.4     c0.2,1.7-0.1-0.5-0.1-0.7c-0.1-0.9-0.2-1.8-0.3-2.7c-0.2-1.8-0.4-3.6-0.5-5.5c-1.1-13.7-0.7-27.5,0.8-41.1c0.1-0.6,0.4-2.9,0-0.1     c0.1-0.7,0.2-1.4,0.3-2c0.2-1.6,0.5-3.2,0.8-4.8c0.6-3.6,1.4-7.2,2.2-10.8c1.6-6.7,3.5-13.4,5.8-19.9c1.1-3.1,2.2-6.1,3.4-9.1     c0.2-0.4,1.1-2.7,0.1-0.3c0.3-0.6,0.6-1.3,0.8-1.9c0.8-1.9,1.7-3.8,2.6-5.7c2.9-6.1,6.2-12.1,9.7-17.9c1.9-3,3.8-6,5.8-8.9     c0.9-1.4,1.9-2.7,2.9-4.1c0.4-0.6,0.9-1.2,1.3-1.7c2.7-3.7-0.9,1.1,0.7-1c4.5-5.7,9.3-11.2,14.4-16.4     c11.8-12.1,22.7-20.7,37.1-29.3c14.2-8.5,26-13.7,41.3-18.3c7.6-2.3,15.4-4.1,23.2-5.5c6.8-1.2,12.7-1.8,21.2-2.2     c16.1-0.8,31.1,0.4,44.9,3.1c7.6,1.5,15,3.4,22.4,5.8c8.1,2.6,13.6,4.7,20.3,7.9c22.5,10.6,39.7,23.8,56.9,41.1     c12.6,12.6,25.1,25.1,37.7,37.7c3,3,6,6,9,9c5.7,5.7,15.5,5.7,21.2,0c10.8-10.8,21.6-21.6,32.4-32.4c5.5-5.5,11-11,16.6-16.6     c1.8-1.8,3.7-3.7,5.6-5.5c2.6-2.5,5.3-4.9,8.1-7.3c1.5-1.2,3-2.5,4.5-3.7c0.7-0.6,1.5-1.2,2.3-1.8c-1.3,1-0.4,0.3,0.4-0.3     c12.2-8.9,25.2-16.4,39-22.6c0.4-0.2,2.7-1.1,0.3-0.1c0.9-0.4,1.7-0.7,2.6-1c1.5-0.6,3-1.2,4.5-1.7c3.7-1.4,7.4-2.6,11.2-3.7     c7-2.1,14.2-3.9,21.4-5.2c1.6-0.3,3.2-0.6,4.7-0.8c0.9-0.1,1.8-0.3,2.7-0.4c2.4-0.4-2.3,0.3,0.1,0c3.6-0.5,7.3-0.8,10.9-1.1     c7.3-0.5,14.6-0.6,22-0.4c3.4,0.1,6.9,0.3,10.3,0.6c1.8,0.2,3.6,0.3,5.5,0.6c0.9,0.1,1.8,0.2,2.7,0.3c-2.2-0.3-0.4,0,0.8,0.1     c7.3,1.1,14.5,2.6,21.6,4.5c7.8,2.1,15.4,4.8,23,7.7c2.7,1.1,0.9,0.3,0.3,0.1c1.1,0.5,2.1,0.9,3.2,1.4c1.9,0.9,3.8,1.7,5.7,2.7     c3.8,1.8,7.5,3.8,11.2,5.9c7.4,4.2,14.5,8.9,21.3,14.1c-0.2-0.2-1.5-1.2-0.2-0.2c0.9,0.7,1.9,1.5,2.8,2.2c1.7,1.4,3.3,2.8,5,4.2     C828.4,239.1,831.8,242.2,835.1,245.5c5.7,5.7,15.5,5.7,21.2,0c5.7-5.7,5.8-15.5,0-21.2c-45.7-45.4-111.2-68.8-175.3-61.4     c-32.2,3.7-63.3,14-90.8,31.2c-18.7,11.7-34.4,26.6-49.9,42.1c-13,13-25.9,25.9-38.9,38.9c7.1,0,14.1,0,21.2,0     c-10.1-10.1-20.2-20.2-30.3-30.3c-12.3-12.3-24.4-25.3-38.1-36.1c-54-42.7-126.1-57.7-192.6-39.2     c-63.9,17.8-115.9,65.1-141,126.2c-22.4,54.6-20.1,117,4,170.6c12.3,27.5,31.2,50.1,52.2,71.2c17.1,17.1,34.1,34.1,51.2,51.2     c26,26,52,52,78,78c28.3,28.3,56.5,56.5,84.8,84.8c23.8,23.8,47.5,47.5,71.3,71.3c12.5,12.5,25.1,25.1,37.6,37.6     c0.6,0.6,1.1,1.1,1.7,1.7c5.7,5.7,15.5,5.7,21.2,0c18.5-18.5,36.9-36.9,55.4-55.4c40.1-40.1,80.2-80.2,120.3-120.3     c38.4-38.4,76.9-76.9,115.3-115.3c22.9-22.9,48.2-45.2,66.9-71.7c51.5-73,50.9-176.1-1.7-248.3c-6.9-9.5-14.4-18.4-22.6-26.7     c-5.7-5.7-15.5-5.7-21.2,0C829.3,230.1,829.4,239.7,835.1,245.5z"/></g></g><g><g><path d="M663.3,529.1c-21.2,0-42.4,0-63.6,0c4.3,2.5,8.6,5,13,7.4c-12.8-27.3-25.6-54.6-38.4-81.8     c-1.8-3.8-3.6-7.7-5.4-11.5c-4.6-9.8-21.3-9.8-25.9,0c-19,40.9-38,81.8-57.1,122.7c-2.7,5.8-5.4,11.6-8.1,17.3     c9.1,1.2,18.3,2.4,27.4,3.6c-9.4-24-18.7-48.1-28.1-72.1c-14.8-38.1-29.7-76.3-44.5-114.4c-3.4-8.8-6.9-17.6-10.3-26.4     c-2.2-5.7-6.1-9.9-12.5-10.7c-5.6-0.7-12.3,1.8-14.9,7.2c-9.2,18.7-18.4,37.5-27.6,56.2c-14.7,29.8-29.3,59.7-44,89.5     c-3.4,6.8-6.7,13.7-10.1,20.5c4.3-2.5,8.6-5,13-7.4c-35.6,0-71.1,0-106.7,0c-5.1,0-10.2,0-15.3,0c-7.8,0-15.4,6.9-15,15     c0.4,8.1,6.6,15,15,15c35.6,0,71.1,0,106.7,0c5.1,0,10.2,0,15.3,0c5,0,10.7-2.8,13-7.4c9.2-18.7,18.4-37.5,27.6-56.2     c14.7-29.8,29.3-59.7,44-89.5c3.4-6.8,6.7-13.7,10.1-20.5c-9.1-1.2-18.3-2.4-27.4-3.6c9.4,24,18.7,48.1,28.1,72.1     c14.8,38.1,29.7,76.3,44.5,114.4c3.4,8.8,6.9,17.6,10.3,26.4c2.2,5.7,6.1,9.9,12.5,10.7c5.5,0.7,12.4-1.8,14.9-7.2     c19-40.9,38-81.8,57.1-122.7c2.7-5.8,5.4-11.6,8.1-17.3c-8.6,0-17.3,0-25.9,0c12.8,27.3,25.6,54.6,38.4,81.8     c1.8,3.8,3.6,7.7,5.4,11.5c2.2,4.7,8,7.4,13,7.4c21.2,0,42.4,0,63.6,0c7.8,0,15.4-6.9,15-15C678,535.9,671.7,529.1,663.3,529.1     L663.3,529.1z"/></g></g></g><text x="0" y="1039" fill="#000000" font-size="5px" font-weight="bold" font-family="'Helvetica Neue', Helvetica, Arial-Unicode, Arial, Sans-serif">Created by shashank singh</text><text x="0" y="1044" fill="#000000" font-size="5px" font-weight="bold" font-family="'Helvetica Neue', Helvetica, Arial-Unicode, Arial, Sans-serif">from the Noun Project</text></svg>